<mxfile host="app.diagrams.net" modified="2023-06-24T03:28:24.390Z" agent="Mozilla/5.0 (Windows NT 10.0; Win64; x64) AppleWebKit/537.36 (KHTML, like Gecko) Chrome/114.0.0.0 Safari/537.36" version="21.5.0" etag="diwY9zc3f7jlMHkH1vYc" type="github">
  <diagram name="第 1 页" id="POoLvG0KGlz7YIlAlJ7y">
    <mxGraphModel>
      <root>
        <mxCell id="0" />
        <mxCell id="1" parent="0" />
      </root>
    </mxGraphModel>
  </diagram>
</mxfile>
